<?xml version="1.0" standalone="no"?>
<!DOCTYPE svg PUBLIC "-//W3C//DTD SVG 20010904//EN"
 "http://www.w3.org/TR/2001/REC-SVG-20010904/DTD/svg10.dtd">
<svg version="1.0" xmlns="http://www.w3.org/2000/svg"
 width="184.000000pt" height="184.000000pt" viewBox="0 0 184.000000 184.000000"
 preserveAspectRatio="xMidYMid meet">
<metadata>
Created by potrace 1.11, written by Peter Selinger 2001-2013
</metadata>
<g transform="translate(0.000000,184.000000) scale(0.100000,-0.100000)"
fill="#000000" stroke="none">
<path d="M0 1829 c0 -5 5 -7 10 -4 5 3 10 8 10 11 0 2 -4 4 -10 4 -5 0 -10 -5
-10 -11z"/>
<path d="M1241 1823 c0 -10 4 -36 8 -58 7 -32 9 -34 10 -12 1 19 6 27 19 27
13 0 14 2 3 9 -8 5 -12 18 -8 30 4 16 1 21 -14 21 -12 0 -19 -7 -18 -17z"/>
<path d="M1825 1830 c3 -5 8 -10 11 -10 2 0 4 5 4 10 0 6 -5 10 -11 10 -5 0
-7 -4 -4 -10z"/>
<path d="M1708 1793 c7 -3 16 -2 19 1 4 3 -2 6 -13 5 -11 0 -14 -3 -6 -6z"/>
<path d="M1798 1773 c7 -3 16 -2 19 1 4 3 -2 6 -13 5 -11 0 -14 -3 -6 -6z"/>
<path d="M969 1708 c-19 -24 -37 -46 -42 -49 -4 -3 -5 -13 -2 -21 4 -9 1 -19
-6 -24 -9 -5 -10 -2 -6 9 8 21 10 22 -56 -7 -30 -14 -63 -22 -74 -20 -11 3
-25 -2 -34 -12 -13 -16 -12 -17 15 -10 26 6 28 5 17 -8 -17 -21 -7 -20 25 0
13 9 27 14 30 11 3 -3 21 1 40 9 31 13 35 13 54 -6 11 -11 17 -26 14 -35 -4
-8 -1 -21 5 -29 11 -14 10 -50 -2 -62 -9 -9 -65 -9 -103 0 -25 6 -31 11 -27
27 5 19 6 19 26 2 11 -10 17 -12 13 -5 -4 7 -2 12 7 12 27 0 13 29 -17 36 -52
13 -56 13 -63 2 -3 -6 -1 -8 4 -5 6 4 13 0 16 -7 5 -13 -17 -15 -146 -13 -146
2 -154 3 -198 29 -26 15 -65 30 -87 34 -35 5 -42 3 -52 -16 -13 -24 -16 -119
-7 -230 3 -36 5 -67 6 -69 1 -2 9 3 19 10 16 13 16 12 0 -6 -10 -13 -15 -32
-12 -56 4 -38 -6 -53 -41 -61 -18 -5 -18 -6 5 -16 14 -6 19 -11 11 -11 -11 -1
-11 -5 3 -19 12 -15 15 -34 13 -90 -2 -50 0 -72 8 -72 6 0 12 -14 12 -32 0
-20 7 -37 21 -49 15 -11 22 -28 22 -52 0 -18 6 -54 13 -78 8 -27 11 -54 6 -67
-5 -13 -4 -24 2 -28 6 -3 8 -12 5 -19 -2 -7 3 -16 12 -20 15 -6 15 -8 -2 -21
-11 -8 -14 -14 -8 -14 7 0 12 -3 11 -8 -3 -16 14 -52 25 -53 6 0 20 -2 30 -4
11 -2 53 11 93 30 40 19 73 32 73 29 0 -2 -32 -20 -70 -39 -39 -20 -68 -40
-65 -45 3 -5 1 -11 -4 -14 -5 -4 -12 -2 -16 4 -4 7 -13 6 -27 -1 -15 -8 -18
-8 -14 0 5 7 -2 10 -18 9 -17 -2 -22 -6 -16 -13 6 -7 6 -15 0 -21 -11 -11 -2
-54 11 -54 5 0 9 -7 9 -15 0 -8 7 -15 16 -15 8 0 12 -5 9 -10 -4 -6 -11 -7
-17 -4 -7 4 -8 2 -4 -4 4 -7 4 -17 0 -23 -4 -8 -9 -7 -15 2 -11 19 -19 7 -12
-19 3 -12 10 -22 17 -22 14 0 19 -60 5 -76 -7 -9 -5 -15 7 -22 12 -7 13 -11 5
-17 -9 -5 -9 -10 -1 -20 8 -10 8 -20 1 -33 -11 -20 -9 -60 3 -80 10 -17 277
-17 295 1 11 10 13 10 7 0 -5 -9 0 -13 14 -13 13 0 24 10 31 27 6 15 15 31 21
35 9 5 8 11 -2 22 -13 17 -25 13 -25 -7 0 -5 -11 -12 -25 -14 -14 -1 -37 -4
-53 -6 -18 -2 -34 4 -48 19 l-21 23 36 15 c19 8 48 27 63 42 l28 26 -25 -7
c-61 -17 -160 -31 -171 -24 -8 5 -6 9 7 13 10 3 -9 4 -44 2 -76 -3 -64 6 47
32 45 12 85 23 88 26 3 2 -39 3 -94 1 -97 -3 -97 -3 -48 10 28 7 60 14 73 14
12 1 22 6 22 11 0 6 -25 10 -55 10 -30 0 -55 5 -55 10 0 6 11 10 24 10 13 0
29 7 36 15 10 12 15 13 21 4 4 -8 11 -4 20 12 11 21 10 22 -3 12 -8 -7 -18
-10 -21 -6 -4 3 -13 0 -22 -7 -20 -17 -19 -1 2 22 11 12 12 18 3 18 -7 0 -10
7 -6 15 4 12 0 12 -21 -2 -19 -13 -25 -14 -18 -4 6 11 4 13 -8 8 -33 -12 -16
8 29 35 25 16 42 23 38 17 -12 -21 29 8 91 61 74 65 74 65 53 57 -47 -18 -51
-18 -20 2 37 24 46 26 36 9 -5 -8 -1 -9 12 -5 11 4 3 -8 -18 -27 -21 -18 -38
-38 -38 -44 0 -6 -6 -9 -13 -6 -7 2 -22 -4 -32 -16 -16 -18 -17 -20 -1 -20 9
0 19 7 22 15 4 8 9 13 13 11 4 -3 25 13 46 35 57 59 86 72 49 23 l-28 -39 38
35 c25 23 35 29 30 16 -5 -13 -4 -17 4 -12 6 3 30 2 53 -3 23 -5 51 -6 63 -1
105 41 240 36 263 -10 11 -22 13 -23 13 -5 0 12 -6 27 -12 34 -11 11 -9 11 10
2 12 -7 22 -22 23 -34 0 -12 2 -32 3 -44 2 -18 0 -20 -11 -11 -10 8 -17 8 -25
0 -9 -9 -8 -12 3 -13 7 -1 -1 -4 -20 -8 -32 -6 -33 -7 -18 -22 9 -9 13 -19 10
-23 -4 -3 -1 -6 6 -6 7 0 9 -4 6 -10 -7 -12 -60 13 -69 32 -3 7 -2 0 1 -17 3
-16 10 -31 15 -33 18 -8 8 -53 -14 -61 -14 -5 -17 -10 -10 -15 7 -4 12 -11 12
-17 0 -10 -41 10 -52 26 -12 16 -28 -8 -22 -32 3 -12 13 -24 23 -26 11 -3 6
-8 -16 -17 -39 -14 -44 -33 -8 -24 14 3 25 4 25 1 0 -2 -21 -27 -47 -54 -31
-33 -73 -62 -120 -84 -40 -19 -73 -37 -73 -41 0 -15 43 -8 56 9 13 17 15 17
25 1 12 -21 39 -23 58 -5 11 9 14 9 18 0 4 -10 98 -13 424 -13 l419 0 0 35 c0
19 -9 52 -21 74 -11 22 -17 45 -14 52 8 11 -11 54 -33 78 -8 8 -11 22 -9 33 3
10 0 21 -6 26 -23 14 -69 92 -64 106 4 9 -6 25 -26 41 -18 14 -39 31 -47 38
-8 7 -30 24 -47 36 -18 12 -33 28 -33 35 0 7 -11 19 -25 26 -17 9 -23 19 -20
31 4 11 -4 24 -25 39 -33 23 -39 47 -15 56 18 7 16 34 -3 49 -7 6 -13 19 -12
30 0 11 1 34 1 50 1 17 -1 64 -4 105 -4 46 -2 79 5 87 9 12 11 54 5 163 -1 19
-6 38 -10 41 -5 4 -2 17 6 30 13 20 13 26 2 36 -7 6 -16 9 -19 6 -3 -4 -6 7
-6 24 0 16 -3 33 -7 36 -3 4 -7 67 -8 140 -2 150 -8 183 -38 191 -23 6 -47 -9
-134 -85 -32 -27 -66 -49 -76 -49 -10 0 -26 -4 -35 -9 -9 -4 -32 -11 -49 -14
-29 -6 -33 -4 -33 16 0 12 -7 54 -16 92 -9 39 -16 78 -16 88 1 24 -2 22 -39
-25z m-589 -292 c0 -3 -13 1 -30 7 -16 6 -30 15 -30 19 0 5 14 2 30 -7 17 -9
30 -17 30 -19z m83 -22 c53 -18 79 -41 45 -40 -20 1 -56 -37 -95 -100 -11 -18
-11 -17 -6 3 3 13 23 43 45 68 22 25 38 45 36 46 -1 0 -18 3 -37 6 -35 5 -76
33 -48 33 7 0 34 -7 60 -16z m217 -834 c-8 -5 -19 -10 -25 -10 -5 0 -3 5 5 10
8 5 20 10 25 10 6 0 3 -5 -5 -10z m-64 -73 c-100 -75 -116 -86 -116 -77 0 6
30 30 68 55 71 47 96 58 48 22z m571 -205 c9 -6 7 -11 -7 -20 -12 -7 -20 -8
-20 -2 0 5 6 10 13 10 8 0 7 4 -3 10 -8 5 -10 10 -5 10 6 0 15 -4 22 -8z
m-472 -251 c-3 -6 -11 -11 -17 -11 -6 0 -6 6 2 15 14 17 26 13 15 -4z m45 9
c0 -5 -5 -10 -11 -10 -5 0 -7 5 -4 10 3 6 8 10 11 10 2 0 4 -4 4 -10z"/>
<path d="M695 1590 c-3 -5 1 -10 9 -10 9 0 16 5 16 10 0 6 -4 10 -9 10 -6 0
-13 -4 -16 -10z"/>
<path d="M610 1551 c0 -6 8 -11 18 -11 10 0 22 -3 26 -7 7 -7 13 -9 61 -16 17
-2 22 -2 12 0 -9 2 -15 8 -12 13 7 12 -3 16 -57 24 -32 5 -48 4 -48 -3z"/>
<path d="M545 1520 c-3 -6 1 -7 9 -4 18 7 21 14 7 14 -6 0 -13 -4 -16 -10z"/>
<path d="M610 1520 c0 -5 7 -10 16 -10 8 0 12 5 9 10 -3 6 -10 10 -16 10 -5 0
-9 -4 -9 -10z"/>
<path d="M0 1115 l0 -245 71 0 71 0 -6 78 c-3 42 -8 152 -12 245 l-6 167 -59
0 -59 0 0 -245z"/>
<path d="M13 543 c9 -2 23 -2 30 0 6 3 -1 5 -18 5 -17 0 -22 -2 -12 -5z"/>
<path d="M130 540 c8 -5 26 -9 40 -9 l25 1 -25 8 c-14 4 -32 8 -40 9 -13 1
-13 0 0 -9z"/>
<path d="M53 513 c9 -2 25 -2 35 0 9 3 1 5 -18 5 -19 0 -27 -2 -17 -5z"/>
<path d="M198 493 c6 -2 18 -2 25 0 6 3 1 5 -13 5 -14 0 -19 -2 -12 -5z"/>
<path d="M724 469 c-3 -6 -1 -16 5 -22 9 -9 10 -7 5 7 -6 15 -4 17 6 11 9 -5
11 -4 6 3 -9 15 -13 15 -22 1z"/>
<path d="M150 410 c0 -5 7 -7 15 -4 8 4 15 8 15 10 0 2 -7 4 -15 4 -8 0 -15
-4 -15 -10z"/>
<path d="M50 400 c0 -5 5 -10 11 -10 5 0 7 5 4 10 -3 6 -8 10 -11 10 -2 0 -4
-4 -4 -10z"/>
<path d="M118 403 c7 -3 16 -2 19 1 4 3 -2 6 -13 5 -11 0 -14 -3 -6 -6z"/>
<path d="M250 375 c0 -10 10 -15 30 -15 32 0 40 14 14 24 -27 10 -44 7 -44 -9z"/>
<path d="M1035 360 c5 -16 3 -19 -12 -13 -16 6 -16 5 -5 -10 8 -9 11 -21 7
-27 -3 -5 0 -10 8 -10 10 0 16 13 19 40 2 29 0 40 -10 40 -9 0 -11 -7 -7 -20z"/>
<path d="M218 363 c7 -3 16 -2 19 1 4 3 -2 6 -13 5 -11 0 -14 -3 -6 -6z"/>
<path d="M0 350 c0 -5 4 -10 9 -10 6 0 13 5 16 10 3 6 -1 10 -9 10 -9 0 -16
-4 -16 -10z"/>
<path d="M170 325 c-14 -7 -34 -17 -45 -20 l-20 -7 20 -8 c17 -7 16 -9 -10
-10 -26 0 -28 -2 -12 -11 25 -15 68 -3 61 16 -4 9 0 15 7 15 8 0 28 9 44 20
30 20 30 20 5 20 -14 0 -36 -7 -50 -15z"/>
<path d="M298 323 c7 -3 16 -2 19 1 4 3 -2 6 -13 5 -11 0 -14 -3 -6 -6z"/>
<path d="M40 290 c-9 -6 -10 -10 -3 -10 6 0 15 5 18 10 8 12 4 12 -15 0z"/>
<path d="M375 270 c3 -5 8 -10 11 -10 2 0 4 5 4 10 0 6 -5 10 -11 10 -5 0 -7
-4 -4 -10z"/>
<path d="M186 248 c5 -8 0 -9 -14 -6 -12 4 -22 2 -22 -3 0 -5 6 -9 13 -9 6 -1
-1 -7 -18 -15 l-30 -15 38 5 c27 4 37 2 37 -8 0 -10 -14 -12 -57 -10 -62 3
-103 -3 -103 -15 0 -7 28 -7 135 1 22 1 32 9 39 28 10 29 3 59 -14 59 -6 0 -8
-5 -4 -12z"/>
<path d="M340 255 c0 -18 19 -40 26 -32 4 4 0 15 -9 24 -9 10 -17 13 -17 8z"/>
<path d="M10 239 c0 -5 5 -7 10 -4 6 3 10 8 10 11 0 2 -4 4 -10 4 -5 0 -10 -5
-10 -11z"/>
<path d="M100 240 c0 -5 5 -10 11 -10 5 0 7 5 4 10 -3 6 -8 10 -11 10 -2 0 -4
-4 -4 -10z"/>
<path d="M36 231 c-4 -5 3 -7 14 -4 23 6 26 13 6 13 -8 0 -17 -4 -20 -9z"/>
<path d="M946 225 c4 -8 8 -15 10 -15 2 0 4 7 4 15 0 8 -4 15 -10 15 -5 0 -7
-7 -4 -15z"/>
<path d="M5 210 c-3 -5 -1 -10 4 -10 6 0 11 5 11 10 0 6 -2 10 -4 10 -3 0 -8
-4 -11 -10z"/>
<path d="M300 164 c0 -16 9 -18 28 -5 10 6 9 10 -7 14 -14 3 -21 0 -21 -9z"/>
<path d="M145 140 c3 -5 10 -10 16 -10 5 0 9 5 9 10 0 6 -7 10 -16 10 -8 0
-12 -4 -9 -10z"/>
<path d="M280 130 c0 -5 5 -10 11 -10 5 0 7 5 4 10 -3 6 -8 10 -11 10 -2 0 -4
-4 -4 -10z"/>
<path d="M187 111 c3 -10 11 -18 19 -17 22 3 29 16 14 26 -24 16 -39 11 -33
-9z"/>
<path d="M949 119 c-6 -3 4 -6 20 -7 17 0 31 3 31 8 0 10 -35 9 -51 -1z"/>
<path d="M80 102 c0 -15 51 -25 63 -13 8 8 7 11 -3 11 -8 0 -25 3 -37 6 -13 4
-23 2 -23 -4z"/>
<path d="M844 95 c-10 -8 -14 -15 -8 -15 6 0 17 7 24 15 16 19 9 19 -16 0z"/>
<path d="M280 59 c0 -5 9 -9 20 -9 11 0 20 -7 20 -15 0 -8 5 -15 10 -15 23 0
8 29 -20 39 -18 6 -30 6 -30 0z"/>
<path d="M175 42 c28 -13 44 -16 53 -9 16 13 16 13 -43 21 l-50 7 40 -19z"/>
<path d="M845 50 c-3 -5 -1 -10 4 -10 6 0 11 5 11 10 0 6 -2 10 -4 10 -3 0 -8
-4 -11 -10z"/>
<path d="M7 43 c7 -2 19 -2 26 0 6 3 1 5 -13 5 -14 0 -19 -2 -13 -5z"/>
<path d="M125 30 c3 -5 14 -10 23 -10 15 0 15 2 2 10 -20 13 -33 13 -25 0z"/>
<path d="M66 13 c10 -7 27 -12 38 -12 19 2 19 2 -1 6 -13 2 -23 8 -23 12 0 4
-7 8 -16 8 -14 0 -14 -2 2 -14z"/>
<path d="M0 10 c0 -5 5 -10 11 -10 5 0 7 5 4 10 -3 6 -8 10 -11 10 -2 0 -4 -4
-4 -10z"/>
</g>
</svg>
